# xmcd CD database file
#
# Track frame offsets:
#	150
#	14977
#	31302
#	49100
#	66700
#	78527
#	97172
#	115387
#	129490
#	152002
#	164150
#	180950
#
# Disc length: 2715 seconds
#
# Revision: 0
# Processed by: cddbd v1.5.1PL0 Copyright (c) Steve Scherf et al.
# Submitted via: CDex 1.51
#
DISCID=ad0a990c
DTITLE=Ben Kweller - On My Way
DYEAR=2004
DGENRE=AlternRock
TTITLE0=I Need You Back
TTITLE1=Hospital Bed
TTITLE2=My Apartment
TTITLE3=On My Way
TTITLE4=The Rules
TTITLE5=Down
TTITLE6=Living Life
TTITLE7=Ann Disaster
TTITLE8=Believer
TTITLE9=I Quit
TTITLE10=Hear Me Out
TTITLE11=Different But The Same
EXTD=YEAR: 2004
EXTT0=
EXTT1=
EXTT2=
EXTT3=
EXTT4=
EXTT5=
EXTT6=
EXTT7=
EXTT8=
EXTT9=
EXTT10=
EXTT11=
PLAYORDER=
